<?xml version="1.0" standalone="no"?>
<!DOCTYPE svg PUBLIC "-//W3C//DTD SVG 20010904//EN"
 "http://www.w3.org/TR/2001/REC-SVG-20010904/DTD/svg10.dtd">
<svg version="1.0" xmlns="http://www.w3.org/2000/svg"
 width="100.000000pt" height="100.000000pt" viewBox="0 0 100.000000 100.000000"
 preserveAspectRatio="xMidYMid meet">

<g transform="translate(0.000000,100.000000) scale(0.100000,-0.100000)"
fill="#000000" stroke="none">
<path d="M257 795 c-130 -102 -237 -190 -237 -195 0 -16 19 -21 40 -10 19 10
20 7 22 -257 l3 -268 415 0 415 0 3 268 2 268 21 -12 c23 -12 46 1 35 19 -8
13 -454 362 -470 368 -7 3 -119 -79 -249 -181z m442 -16 l181 -142 0 -268 0
-269 -380 0 -380 0 0 269 0 268 188 147 c103 80 192 144 198 142 6 -2 93 -68
193 -147z"/>
<path d="M432 688 c-6 -6 -12 -22 -12 -34 0 -28 -21 -46 -40 -34 -8 6 -26 10
-40 10 -21 0 -31 -10 -55 -55 l-30 -56 35 -29 35 -29 -27 -28 c-34 -35 -34
-45 -6 -92 32 -55 46 -63 77 -46 34 17 47 9 58 -35 9 -34 10 -35 67 -38 64 -3
86 8 86 43 0 29 21 47 40 35 8 -6 26 -10 40 -10 21 0 31 10 55 55 l30 56 -35
29 -35 29 28 28 c33 35 33 45 5 92 -32 55 -46 63 -77 46 -34 -17 -47 -9 -58
35 -9 35 -10 35 -69 38 -37 2 -64 -2 -72 -10z m106 -61 c4 -37 50 -61 88 -47
28 11 30 10 55 -33 8 -15 7 -22 -8 -33 -10 -7 -21 -14 -25 -14 -5 0 -8 -17 -8
-38 0 -31 5 -41 25 -52 30 -16 31 -30 7 -60 -16 -20 -21 -21 -41 -10 -35 18
-91 -14 -91 -53 0 -26 -2 -28 -37 -25 -33 3 -38 7 -41 31 -4 37 -50 61 -88 47
-28 -11 -30 -10 -55 33 -8 15 -7 22 8 33 10 7 21 14 26 14 4 0 7 17 7 38 0 31
-5 41 -25 52 -30 16 -31 30 -7 60 16 20 21 21 41 10 35 -18 91 14 91 53 0 26
2 28 38 25 32 -3 37 -7 40 -31z"/>
<path d="M451 546 c-87 -48 -50 -186 49 -186 51 0 100 49 100 99 0 75 -83 124
-149 87z m89 -46 c11 -11 20 -29 20 -40 0 -26 -34 -60 -60 -60 -11 0 -29 9
-40 20 -11 11 -20 29 -20 40 0 11 9 29 20 40 11 11 29 20 40 20 11 0 29 -9 40
-20z"/>
</g>
</svg>
